<svg width="200" height="200" viewBox="0 0 200 200" fill="none" xmlns="http://www.w3.org/2000/svg">
<path d="M173.233 31.9333C172.392 31.0583 171.592 30.1583 170.725 29.2917C169.867 28.4333 168.967 27.6083 168.058 26.775C149.611 9.50707 125.268 -0.0695053 100 9.60151e-06C86.8622 -0.0353499 73.8478 2.53448 61.7096 7.56087C49.5713 12.5873 38.55 19.9704 29.2833 29.2833C-8.84999 67.4167 -9.66666 128.917 26.775 168.067C27.6 168.967 28.4167 169.85 29.275 170.733C30.1417 171.592 31.025 172.4 31.9167 173.233C50.3796 190.492 74.7268 200.064 100 200C126.717 200 151.833 189.608 170.725 170.733C208.858 132.6 209.667 71.1 173.233 31.9333ZM34.4417 34.4417C43.0318 25.8064 53.2487 18.96 64.5016 14.2984C75.7544 9.63675 87.8198 7.25243 100 7.28334C123.542 7.28334 145.75 16.0167 162.917 31.9333L154.575 40.2833C139.693 26.6134 120.208 19.0503 100 19.1C89.3708 19.071 78.8415 21.1507 69.0216 25.2189C59.2017 29.287 50.2863 35.2627 42.7917 42.8C35.2569 50.2944 29.2833 59.2087 25.2166 69.027C21.15 78.8454 19.071 89.3728 19.1 100C19.1 120.4 26.6 139.608 40.2833 154.575L31.925 162.917C-1.67499 126.592 -0.84166 69.725 34.4417 34.4417ZM149.425 45.425V45.4417L140.967 53.8917C129.712 43.7949 115.12 38.2202 100 38.2417C91.8878 38.2189 83.8518 39.8063 76.3576 42.9118C68.8634 46.0174 62.06 50.5793 56.3417 56.3333C50.587 62.0533 46.0242 68.858 42.9173 76.3535C39.8104 83.8489 38.2212 91.8862 38.2417 100C38.2194 115.111 43.7913 129.695 53.8833 140.942L45.4333 149.408C33.1333 135.898 26.3398 118.271 26.3917 100C26.3648 90.3301 28.2572 80.751 31.9593 71.8177C35.6613 62.8844 41.0994 54.7747 47.9583 47.9583C54.775 41.0997 62.8848 35.6619 71.818 31.9599C80.7512 28.2579 90.3302 26.3653 100 26.3917C118.442 26.3917 135.842 33.1333 149.425 45.425ZM154.475 100C154.475 114.542 148.8 128.225 138.508 138.517C128.217 148.808 114.55 154.483 100 154.483C86.8194 154.493 74.089 149.689 64.2 140.975L64.1917 140.942C63.275 140.158 62.3583 139.375 61.4917 138.517C60.6451 137.641 59.8307 136.735 59.05 135.8C50.3248 125.918 45.5222 113.182 45.55 100C45.55 85.45 51.2083 71.775 61.5 61.4917C66.5431 56.4183 72.5428 52.3962 79.1515 49.6583C85.7603 46.9204 92.8466 45.5212 100 45.5417C113.325 45.5417 125.875 50.3417 135.792 59.0417C136.717 59.8417 137.658 60.625 138.508 61.5C139.375 62.3667 140.175 63.2833 140.967 64.2C149.687 74.0854 154.491 86.8182 154.475 100ZM59.0333 146.117C70.2855 156.212 84.8826 161.79 100 161.775C108.114 161.798 116.152 160.208 123.647 157.098C131.142 153.988 137.944 149.419 143.658 143.658C149.416 137.942 153.982 131.14 157.091 123.645C160.199 116.151 161.789 108.114 161.767 100C161.779 84.8852 156.212 70.2976 146.133 59.0333L154.575 50.6C166.868 64.1112 173.661 81.7333 173.617 100C173.646 109.672 171.754 119.254 168.05 128.189C164.346 137.124 158.905 145.235 152.042 152.05C145.227 158.911 137.118 164.351 128.184 168.053C119.25 171.755 109.67 173.646 100 173.617C81.7283 173.661 64.1009 166.869 50.5833 154.575L59.0333 146.117ZM165.558 165.558C156.971 174.196 146.754 181.044 135.5 185.704C124.247 190.365 112.18 192.745 100 192.708C76.6588 192.773 54.1655 183.964 37.075 168.067L45.4417 159.725C60.3214 173.399 79.8081 180.963 100.017 180.908C110.647 180.937 121.178 178.856 130.998 174.785C140.819 170.714 149.733 164.734 157.225 157.192C164.76 149.699 170.733 140.786 174.8 130.969C178.866 121.152 180.946 110.626 180.917 100C180.967 79.7932 173.4 60.3096 159.725 45.4333L168.067 37.0833C201.658 73.4083 200.858 130.267 165.558 165.558Z" fill="#9F3FFF"/>
</svg>
