<svg width="200" height="200" viewBox="0 0 200 200" fill="none" xmlns="http://www.w3.org/2000/svg">
<path d="M22.9333 171.879H177.083V117.304M30.975 157.033L93.4333 94.5834L114.717 115.867L177.083 53.5V99.5667M130.662 53.4958H177.083" stroke="#3F52FF" stroke-linecap="round" stroke-linejoin="round"/>
<path d="M68.5375 51.675H32.0042C26.9853 51.675 22.9167 55.7436 22.9167 60.7625V89.9125C22.9167 94.9314 26.9853 99 32.0042 99H68.5375C73.5564 99 77.625 94.9314 77.625 89.9125V60.7625C77.625 55.7436 73.5564 51.675 68.5375 51.675Z" stroke="#3F52FF" stroke-linecap="round" stroke-linejoin="round"/>
<path d="M35.675 67.45H77.6208M22.9167 83.225H64.8625" stroke="#3F52FF" stroke-linecap="round" stroke-linejoin="round"/>
<path d="M50.2333 43.4542C54.4675 43.4542 57.9 40.0217 57.9 35.7875C57.9 31.5533 54.4675 28.1208 50.2333 28.1208C45.9992 28.1208 42.5667 31.5533 42.5667 35.7875C42.5667 40.0217 45.9992 43.4542 50.2333 43.4542Z" stroke="#3F52FF" stroke-linecap="round" stroke-linejoin="round"/>
</svg>
