<svg width="200" height="198" viewBox="0 0 200 198" fill="none" xmlns="http://www.w3.org/2000/svg">
<path d="M162.5 106.25C166.797 106.25 170.833 107.064 174.609 108.691C178.385 110.319 181.706 112.533 184.57 115.332C187.435 118.132 189.681 121.452 191.309 125.293C192.936 129.134 193.75 133.203 193.75 137.5C193.75 140.885 193.229 144.173 192.188 147.363C191.146 150.553 189.583 153.516 187.5 156.25V197.656L162.5 185.156L137.5 197.656V156.25C135.482 153.516 133.952 150.553 132.91 147.363C131.868 144.173 131.315 140.885 131.25 137.5C131.25 133.203 132.064 129.167 133.691 125.391C135.319 121.615 137.533 118.294 140.332 115.43C143.132 112.565 146.452 110.319 150.293 108.691C154.134 107.064 158.203 106.25 162.5 106.25ZM162.5 118.75C159.896 118.75 157.454 119.238 155.176 120.215C152.897 121.191 150.911 122.526 149.219 124.219C147.526 125.911 146.191 127.897 145.215 130.176C144.238 132.454 143.75 134.896 143.75 137.5C143.75 140.104 144.238 142.546 145.215 144.824C146.191 147.103 147.526 149.089 149.219 150.781C150.911 152.474 152.897 153.809 155.176 154.785C157.454 155.762 159.896 156.25 162.5 156.25C165.104 156.25 167.546 155.762 169.824 154.785C172.103 153.809 174.089 152.474 175.781 150.781C177.474 149.089 178.809 147.103 179.785 144.824C180.762 142.546 181.25 140.104 181.25 137.5C181.25 134.896 180.762 132.454 179.785 130.176C178.809 127.897 177.474 125.911 175.781 124.219C174.089 122.526 172.103 121.191 169.824 120.215C167.546 119.238 165.104 118.75 162.5 118.75ZM175 177.344V166.113C171.094 167.871 166.927 168.75 162.5 168.75C158.073 168.75 153.906 167.871 150 166.113V177.344L162.5 171.094L175 177.344ZM162.5 50C159.049 50 155.827 50.651 152.832 51.9531C149.837 53.2552 147.168 55.0456 144.824 57.3242C142.48 59.6029 140.69 62.2396 139.453 65.2344C138.216 68.2292 137.565 71.4844 137.5 75C137.5 80.9896 136.165 86.6211 133.496 91.8945C130.827 97.168 127.051 101.628 122.168 105.273C123.405 105.859 124.577 106.51 125.684 107.227C126.79 107.943 127.93 108.691 129.102 109.473L121.777 119.629C118.587 117.35 115.137 115.592 111.426 114.355C107.715 113.118 103.906 112.5 100 112.5C94.7917 112.5 89.9414 113.477 85.4492 115.43C80.957 117.383 76.9857 120.052 73.5352 123.438C70.0846 126.823 67.3828 130.827 65.4297 135.449C63.4766 140.072 62.5 144.922 62.5 150H50C50 145.247 50.651 140.658 51.9531 136.23C53.2552 131.803 55.1107 127.637 57.5195 123.73C59.9284 119.824 62.8255 116.309 66.2109 113.184C69.5964 110.059 73.4375 107.389 77.7344 105.176C72.9167 101.595 69.1732 97.168 66.5039 91.8945C63.8346 86.6211 62.5 80.9896 62.5 75C62.5 71.5495 61.849 68.3268 60.5469 65.332C59.2448 62.3372 57.4544 59.668 55.1758 57.3242C52.8971 54.9805 50.2604 53.1901 47.2656 51.9531C44.2708 50.7161 41.0156 50.0651 37.5 50C34.0495 50 30.8268 50.651 27.832 51.9531C24.8372 53.2552 22.168 55.0456 19.8242 57.3242C17.4805 59.6029 15.6901 62.2396 14.4531 65.2344C13.2161 68.2292 12.5651 71.4844 12.5 75H0C0 71.6146 0.455729 68.3268 1.36719 65.1367C2.27865 61.9466 3.54818 58.9193 5.17578 56.0547C6.80339 53.1901 8.82161 50.5859 11.2305 48.2422C13.6393 45.8984 16.3411 43.8802 19.3359 42.1875C17.1875 39.9089 15.5273 37.2721 14.3555 34.2773C13.1836 31.2826 12.5651 28.1901 12.5 25C12.5 21.5495 13.151 18.3268 14.4531 15.332C15.7552 12.3372 17.5456 9.66797 19.8242 7.32422C22.1029 4.98047 24.7396 3.1901 27.7344 1.95312C30.7292 0.716146 33.9844 0.0651042 37.5 0C40.9505 0 44.1732 0.651042 47.168 1.95312C50.1628 3.25521 52.832 5.04557 55.1758 7.32422C57.5195 9.60286 59.3099 12.2396 60.5469 15.2344C61.7839 18.2292 62.4349 21.4844 62.5 25C62.5 28.1901 61.9141 31.2826 60.7422 34.2773C59.5703 37.2721 57.8776 39.9089 55.6641 42.1875C61.0026 45.1172 65.3646 49.1536 68.75 54.2969C70.5078 51.6927 72.526 49.349 74.8047 47.2656C77.0833 45.1823 79.5573 43.4245 82.2266 41.9922C84.8958 40.5599 87.7279 39.4531 90.7227 38.6719C93.7174 37.8906 96.8099 37.5 100 37.5C103.125 37.5 106.185 37.8906 109.18 38.6719C112.174 39.4531 115.007 40.5599 117.676 41.9922C120.345 43.4245 122.852 45.1823 125.195 47.2656C127.539 49.349 129.557 51.6927 131.25 54.2969C134.635 49.1536 138.997 45.1172 144.336 42.1875C142.188 39.9089 140.527 37.2721 139.355 34.2773C138.184 31.2826 137.565 28.1901 137.5 25C137.5 21.5495 138.151 18.3268 139.453 15.332C140.755 12.3372 142.546 9.66797 144.824 7.32422C147.103 4.98047 149.74 3.1901 152.734 1.95312C155.729 0.716146 158.984 0.0651042 162.5 0C165.951 0 169.173 0.651042 172.168 1.95312C175.163 3.25521 177.832 5.04557 180.176 7.32422C182.52 9.60286 184.31 12.2396 185.547 15.2344C186.784 18.2292 187.435 21.4844 187.5 25C187.5 28.1901 186.914 31.2826 185.742 34.2773C184.57 37.2721 182.878 39.9089 180.664 42.1875C183.659 43.8802 186.328 45.8984 188.672 48.2422C191.016 50.5859 193.034 53.1576 194.727 55.957C196.419 58.7565 197.721 61.7839 198.633 65.0391C199.544 68.2943 200 71.6146 200 75H187.5C187.5 71.5495 186.849 68.3268 185.547 65.332C184.245 62.3372 182.454 59.668 180.176 57.3242C177.897 54.9805 175.26 53.1901 172.266 51.9531C169.271 50.7161 166.016 50.0651 162.5 50ZM150 25C150 26.7578 150.326 28.3854 150.977 29.8828C151.628 31.3802 152.507 32.6823 153.613 33.7891C154.72 34.8958 156.055 35.8073 157.617 36.5234C159.18 37.2396 160.807 37.5651 162.5 37.5C164.258 37.5 165.885 37.1745 167.383 36.5234C168.88 35.8724 170.182 34.9935 171.289 33.8867C172.396 32.7799 173.307 31.4453 174.023 29.8828C174.74 28.3203 175.065 26.6927 175 25C175 23.2422 174.674 21.6146 174.023 20.1172C173.372 18.6198 172.493 17.3177 171.387 16.2109C170.28 15.1042 168.945 14.1927 167.383 13.4766C165.82 12.7604 164.193 12.4349 162.5 12.5C160.742 12.5 159.115 12.8255 157.617 13.4766C156.12 14.1276 154.818 15.0065 153.711 16.1133C152.604 17.2201 151.693 18.5547 150.977 20.1172C150.26 21.6797 149.935 23.3073 150 25ZM25 25C25 26.7578 25.3255 28.3854 25.9766 29.8828C26.6276 31.3802 27.5065 32.6823 28.6133 33.7891C29.7201 34.8958 31.0547 35.8073 32.6172 36.5234C34.1797 37.2396 35.8073 37.5651 37.5 37.5C39.2578 37.5 40.8854 37.1745 42.3828 36.5234C43.8802 35.8724 45.1823 34.9935 46.2891 33.8867C47.3958 32.7799 48.3073 31.4453 49.0234 29.8828C49.7396 28.3203 50.0651 26.6927 50 25C50 23.2422 49.6745 21.6146 49.0234 20.1172C48.3724 18.6198 47.4935 17.3177 46.3867 16.2109C45.2799 15.1042 43.9453 14.1927 42.3828 13.4766C40.8203 12.7604 39.1927 12.4349 37.5 12.5C35.7422 12.5 34.1146 12.8255 32.6172 13.4766C31.1198 14.1276 29.8177 15.0065 28.7109 16.1133C27.6042 17.2201 26.6927 18.5547 25.9766 20.1172C25.2604 21.6797 24.9349 23.3073 25 25ZM75 75C75 78.4505 75.651 81.6732 76.9531 84.668C78.2552 87.6628 80.0456 90.332 82.3242 92.6758C84.6029 95.0195 87.2396 96.8099 90.2344 98.0469C93.2292 99.2839 96.4844 99.9349 100 100C103.451 100 106.673 99.349 109.668 98.0469C112.663 96.7448 115.332 94.9544 117.676 92.6758C120.02 90.3971 121.81 87.7604 123.047 84.7656C124.284 81.7708 124.935 78.5156 125 75C125 71.5495 124.349 68.3268 123.047 65.332C121.745 62.3372 119.954 59.668 117.676 57.3242C115.397 54.9805 112.76 53.1901 109.766 51.9531C106.771 50.7161 103.516 50.0651 100 50C96.5495 50 93.3268 50.651 90.332 51.9531C87.3372 53.2552 84.668 55.0456 82.3242 57.3242C79.9805 59.6029 78.1901 62.2396 76.9531 65.2344C75.7161 68.2292 75.0651 71.4844 75 75Z" fill="white"/>
</svg>
