<svg width="200" height="200" viewBox="0 0 200 200" fill="none" xmlns="http://www.w3.org/2000/svg">
<path fill-rule="evenodd" clip-rule="evenodd" d="M99.8143 21.4286C93.8424 21.3207 87.9078 22.3916 82.3502 24.5799C76.7926 26.7682 71.7211 30.031 67.4259 34.1816C63.1307 38.3321 59.6962 43.2889 57.3189 48.7683C54.9416 54.2477 53.6681 60.1422 53.5714 66.1143V128.571C53.5714 132.36 52.0663 135.994 49.3872 138.673C46.7081 141.352 43.0745 142.857 39.2857 142.857H21.4286C15.7454 142.857 10.2949 140.6 6.27628 136.581C2.25765 132.562 0 127.112 0 121.429L0 92.8571C0 87.1739 2.25765 81.7235 6.27628 77.7049C10.2949 73.6862 15.7454 71.4286 21.4286 71.4286H32.1429V65.8571C32.2732 57.0771 34.1319 48.4086 37.6128 40.347C41.0936 32.2853 46.1285 24.9883 52.4298 18.8727C58.7311 12.7571 66.1754 7.94271 74.3376 4.7045C82.4998 1.4663 91.2199 -0.132302 100 6.57842e-06C108.78 -0.132302 117.5 1.4663 125.662 4.7045C133.825 7.94271 141.269 12.7571 147.57 18.8727C153.872 24.9883 158.906 32.2853 162.387 40.347C165.868 48.4086 167.727 57.0771 167.857 65.8571V71.4286H178.571C184.255 71.4286 189.705 73.6862 193.724 77.7049C197.742 81.7235 200 87.1739 200 92.8571V121.429C200 127.112 197.742 132.562 193.724 136.581C189.705 140.6 184.255 142.857 178.571 142.857H167.857V150C167.859 159.654 164.306 168.97 157.877 176.171C151.448 183.373 142.592 187.955 133 189.043C131.137 192.369 128.421 195.137 125.131 197.064C121.842 198.99 118.098 200.003 114.286 200H92.8571C87.1739 200 81.7235 197.742 77.7049 193.724C73.6862 189.705 71.4286 184.255 71.4286 178.571C71.4286 172.888 73.6862 167.438 77.7049 163.419C81.7235 159.401 87.1739 157.143 92.8571 157.143H114.286C122.029 157.143 128.814 161.243 132.571 167.4C136.509 166.495 140.023 164.282 142.54 161.121C145.057 157.961 146.428 154.04 146.429 150V66.1C146.331 60.0971 145.044 54.1732 142.642 48.6708C140.241 43.1683 136.773 38.1963 132.438 34.0424C128.103 29.8885 122.989 26.6349 117.389 24.4698C111.789 22.3047 105.816 21.2711 99.8143 21.4286Z" fill="#FF503F"/>
</svg>
