<svg width="200" height="200" viewBox="0 0 200 200" fill="none" xmlns="http://www.w3.org/2000/svg">
<path d="M158.333 75C158.337 64.9575 155.748 55.0842 150.817 46.3357C145.886 37.5872 138.78 30.2599 130.187 25.0631C121.593 19.8662 111.804 16.9759 101.766 16.6719C91.7281 16.3679 81.7817 18.6605 72.8897 23.3277C63.9976 27.9949 56.4611 34.8787 51.0096 43.3128C45.5581 51.7468 42.3764 61.4454 41.7723 71.4697C41.1682 81.494 43.1623 91.5044 47.5615 100.532C51.9608 109.56 58.6161 117.299 66.8833 123L41.6667 166.667L60.4667 167.442L70.5333 183.333L99.4167 133.3C99.6167 133.3 99.8 133.333 100 133.333C100.2 133.333 100.383 133.308 100.583 133.3L129.467 183.333L139.733 167.783L158.333 166.667L133.117 123C140.897 117.643 147.257 110.475 151.65 102.113C156.043 93.7508 158.337 84.4458 158.333 75ZM58.3333 75C58.3333 66.7591 60.777 58.7033 65.3554 51.8512C69.9338 44.9992 76.4413 39.6587 84.0549 36.505C91.6684 33.3514 100.046 32.5262 108.129 34.134C116.211 35.7417 123.636 39.71 129.463 45.5372C135.29 51.3644 139.258 58.7887 140.866 66.8712C142.474 74.9538 141.649 83.3316 138.495 90.9451C135.341 98.5587 130.001 105.066 123.149 109.645C116.297 114.223 108.241 116.667 100 116.667C88.9493 116.667 78.3512 112.277 70.5372 104.463C62.7232 96.6488 58.3333 86.0507 58.3333 75Z" fill="white"/>
<path d="M100 100C113.807 100 125 88.8071 125 75C125 61.1929 113.807 50 100 50C86.1929 50 75 61.1929 75 75C75 88.8071 86.1929 100 100 100Z" fill="white"/>
</svg>
