<svg width="200" height="200" viewBox="0 0 200 200" fill="none" xmlns="http://www.w3.org/2000/svg">
<g clip-path="url(#clip0_6_7)">
<path d="M132.556 161.944H67.2778C66.099 161.944 64.9686 162.413 64.1351 163.246C63.3016 164.08 62.8333 165.21 62.8333 166.389C62.8333 167.568 63.3016 168.698 64.1351 169.532C64.9686 170.365 66.099 170.833 67.2778 170.833H132.556C133.734 170.833 134.865 170.365 135.698 169.532C136.532 168.698 137 167.568 137 166.389C137 165.21 136.532 164.08 135.698 163.246C134.865 162.413 133.734 161.944 132.556 161.944Z" fill="#FF503F"/>
<path d="M122.222 178.611H77.7778C76.599 178.611 75.4686 179.079 74.6351 179.913C73.8016 180.746 73.3333 181.877 73.3333 183.056C73.3333 184.234 73.8016 185.365 74.6351 186.198C75.4686 187.032 76.599 187.5 77.7778 187.5H122.222C123.401 187.5 124.531 187.032 125.365 186.198C126.198 185.365 126.667 184.234 126.667 183.056C126.667 181.877 126.198 180.746 125.365 179.913C124.531 179.079 123.401 178.611 122.222 178.611Z" fill="#FF503F"/>
<path d="M100 12.5C83.7923 12.5 68.2485 18.9385 56.7879 30.399C45.3274 41.8596 38.8889 57.4034 38.8889 73.6111C38.7921 82.4929 40.6906 91.2832 44.4444 99.3333C46.3043 102.76 48.3827 106.063 50.6667 109.222C55.117 115.188 58.8466 121.659 61.7778 128.5C63.7947 135.741 64.8958 143.207 65.0556 150.722H96.6667V120.056L80.7778 102.667L97.4444 86C98.2899 85.234 99.3975 84.8224 100.538 84.8504C101.679 84.8785 102.765 85.3441 103.571 86.1509C104.378 86.9576 104.844 88.0436 104.872 89.1842C104.9 90.3247 104.488 91.4323 103.722 92.2778L93.2222 102.778L105.556 116.667V150.944H135C135.16 143.429 136.261 135.964 138.278 128.722C141.209 121.881 144.939 115.41 149.389 109.444C151.667 106.176 153.727 102.761 155.556 99.2222C159.309 91.1721 161.208 82.3818 161.111 73.5C161.082 57.3116 154.63 41.7963 143.173 30.3597C131.715 18.9232 116.188 12.5 100 12.5ZM102.5 66.6667L87.3333 81.8333C86.9291 82.2795 86.4384 82.6389 85.891 82.8896C85.3437 83.1404 84.7511 83.2774 84.1492 83.2922C83.5473 83.307 82.9487 83.1994 82.3896 82.9759C81.8306 82.7523 81.3228 82.4175 80.8971 81.9918C80.4714 81.5661 80.1366 81.0583 79.913 80.4992C79.6895 79.9402 79.5819 79.3416 79.5967 78.7397C79.6115 78.1378 79.7485 77.5452 79.9992 76.9979C80.25 76.4505 80.6094 75.9598 81.0556 75.5556L96.2222 60.3889C96.6265 59.9427 97.1172 59.5833 97.6645 59.3326C98.2119 59.0818 98.8045 58.9448 99.4064 58.93C100.008 58.9152 100.607 59.0228 101.166 59.2464C101.725 59.4699 102.233 59.8047 102.658 60.2304C103.084 60.6561 103.419 61.1639 103.643 61.723C103.866 62.282 103.974 62.8806 103.959 63.4825C103.944 64.0844 103.807 64.677 103.556 65.2244C103.306 65.7717 102.946 66.2624 102.5 66.6667Z" fill="#FF503F"/>
</g>
<defs>
<clipPath id="clip0_6_7">
<rect width="200" height="200" fill="white"/>
</clipPath>
</defs>
</svg>
