<svg width="100" height="100" viewBox="0 0 100 100" fill="none" xmlns="http://www.w3.org/2000/svg">
<path d="M43.9187 9.375L56.4813 16.5271L56.6292 29.1833C56.492 30.721 55.9716 32.1997 55.1156 33.4844C54.2597 34.7691 53.0954 35.8187 51.7292 36.5375L31.9313 48.2062C30.5966 48.9462 29.4874 50.0338 28.7215 51.3537C27.9556 52.6735 27.5615 54.1762 27.5813 55.7021L27.4354 65.275L14.4604 58.0917L14.3917 49.3833C14.2455 47.6911 14.5869 45.9923 15.3755 44.4879C16.164 42.9835 17.3668 41.7363 18.8417 40.8937L40.9375 27.3958C41.9309 26.5981 42.7149 25.5704 43.2216 24.4015C43.7284 23.2326 43.9426 21.9578 43.8458 20.6875L43.9187 9.375ZM65.3958 40.575C64.8645 40.3912 64.2987 40.3285 63.74 40.3916C63.1812 40.4547 62.6437 40.6419 62.1667 40.9396L41.2146 53.1875C39.739 54.03 38.5356 55.2774 37.7466 56.7822C36.9576 58.287 36.6161 59.9864 36.7625 61.6792L36.8313 70.3833L49.8104 77.5646L49.9563 67.9917C49.9366 66.4666 50.3305 64.9648 51.0961 63.6457C51.8616 62.3266 52.9703 61.2395 54.3042 60.5L74.8938 48.7104C76.5083 47.6937 76.7271 46.8083 75.5812 46.1771L65.3958 40.575ZM73.6667 62.8437C73.2366 62.6033 72.7498 62.4829 72.2573 62.4949C71.7647 62.507 71.2844 62.6513 70.8667 62.9125L65.0062 66.2458C63.5303 67.0884 62.3267 68.3362 61.5377 69.8414C60.7487 71.3467 60.4074 73.0464 60.5542 74.7396L60.6229 83.4438L73.6021 90.625L73.7479 81.0521C73.7283 79.527 74.1222 78.0252 74.8877 76.7061C75.6533 75.387 76.7619 74.2999 78.0958 73.5604L85.6104 69.4146L73.6667 62.8437Z" stroke="#FF503F" stroke-linecap="round" stroke-linejoin="round"/>
</svg>
